<?xml version="1.0" encoding="iso-8859-1"?>
<!-- Generator: Adobe Illustrator 19.0.0, SVG Export Plug-In . SVG Version: 6.00 Build 0)  -->
<svg version="1.1" xmlns="http://www.w3.org/2000/svg" xmlns:xlink="http://www.w3.org/1999/xlink" x="0px" y="0px"
	 viewBox="0 0 520 520" style="enable-background:new 0 0 520 520;" xml:space="preserve">
<g id="_x32_19_x2C__Duty_x2C__Finance_x2C__Marketing_x2C__Money">
	<g>
		<path d="M194.658,178.256c5.364-10.704-2.472-23.333-14.395-23.333c-6.14,0-11.662,3.408-14.412,8.895
			c-5.365,10.704,2.472,23.332,14.395,23.332C186.385,187.151,191.908,183.743,194.658,178.256z M174.791,168.299
			c1.531-3.055,5.207-4.227,8.201-2.725c3.013,1.51,4.235,5.189,2.725,8.202c-1.531,3.055-5.209,4.226-8.202,2.725
			C174.503,174.991,173.281,171.312,174.791,168.299z"/>
		<path d="M237.214,214.196c-6.14,0-11.663,3.408-14.413,8.895c-3.99,7.961-0.776,17.632,7.185,21.622
			c7.792,3.905,17.539,0.961,21.622-7.185C256.972,226.825,249.138,214.196,237.214,214.196z M242.668,233.048
			c-2.439,4.867-9.549,4.34-11.263-0.812c-1.693-5.095,3.623-9.854,8.538-7.39C242.956,226.356,244.178,230.035,242.668,233.048z"/>
		<path d="M234.514,150.879l-1.324-0.663c-7.427-3.722-16.729-0.927-20.629,6.854l-36.471,72.769
			c-3.797,7.577-0.722,16.831,6.854,20.627l1.325,0.664c7.422,3.72,16.726,0.933,20.628-6.854l36.471-72.77
			C245.165,163.931,242.09,154.677,234.514,150.879z M232.428,167.027l-36.471,72.769c-1.346,2.685-4.575,3.713-7.207,2.395
			l-1.325-0.665c-2.647-1.327-3.721-4.56-2.395-7.207l36.47-72.768c0.917-1.83,2.76-2.967,4.81-2.967
			c1.768,0,2.746,0.818,3.722,1.235C232.681,161.146,233.755,164.38,232.428,167.027z"/>
		<path d="M181.733,125.343c-41.861,13.91-64.602,59.284-50.693,101.145c14.017,42.182,59.361,64.578,101.146,50.694
			c41.861-13.91,64.603-59.284,50.692-101.146C268.887,133.932,223.595,111.436,181.733,125.343z M229.032,267.691
			c-36.777,12.218-76.302-7.641-88.502-44.357c-12.171-36.629,7.727-76.331,44.356-88.502c36.699-12.195,76.28,7.574,88.501,44.356
			C285.56,215.818,265.661,255.52,229.032,267.691z"/>
		<path d="M487.5,456.263h-34.075c21.901-16.752,23.583-48.591,4.557-67.617L351.06,281.723
			c35.948-64.251,24.922-144.784-27.429-197.134c-31.163-31.164-72.598-48.327-116.671-48.327
			c-89.131,0-163.717,70.787-164.454,163.715c-0.746,94.208,74.611,166.286,164.453,166.286c28.242,0,55.974-7.216,80.46-20.901
			c112.992,112.781,106.829,107.344,111.48,110.901H287.5c-2.762,0-5,2.238-5,5c0,2.761,2.238,5,5,5h200c2.762,0,5-2.239,5-5
			C492.5,458.501,490.262,456.263,487.5,456.263z M320.096,363.897l49.498-49.497l14.143,14.142l-49.498,49.498L320.096,363.897z
			 M285.704,334.814c-23.758,14.032-50.987,21.449-78.746,21.449c-84.363,0-155.155-67.638-154.454-156.207
			c0.702-88.411,71.862-153.794,154.455-153.794c41.402,0,80.326,16.123,109.601,45.399
			c50.042,50.042,59.892,127.493,23.951,188.348c-1.161,1.965-0.844,4.465,0.77,6.078l21.242,21.242l-49.498,49.498l-21.243-21.243
			C290.179,333.979,287.679,333.648,285.704,334.814z M341.309,385.109l49.498-49.497l60.105,60.104
			c13.646,13.647,13.646,35.851,0,49.497c-13.679,13.679-35.816,13.682-49.498,0L341.309,385.109z"/>
		<path d="M447.5,221.262c16.542,0,30-13.458,30-30s-13.458-30-30-30s-30,13.458-30,30S430.958,221.262,447.5,221.262z
			 M447.5,171.262c11.028,0,20,8.972,20,20c0,11.028-8.972,20-20,20c-11.028,0-20-8.972-20-20
			C427.5,180.234,436.472,171.262,447.5,171.262z"/>
		<path d="M47.5,301.263c-11.028,0-20,8.972-20,20c0,11.027,8.972,20,20,20s20-8.973,20-20
			C67.5,310.234,58.528,301.263,47.5,301.263z M47.5,331.263c-5.514,0-10-4.486-10-10c0-5.515,4.486-10,10-10s10,4.485,10,10
			C57.5,326.776,53.014,331.263,47.5,331.263z"/>
		<circle cx="280" cy="398.761" r="7.5"/>
		<circle cx="410" cy="253.76" r="7.5"/>
		<circle cx="395" cy="48.76" r="7.5"/>
		<circle cx="70" cy="58.76" r="7.5"/>
		<circle cx="70" cy="428.761" r="7.5"/>
		<path d="M331.959,201.262c0-68.925-56.075-125-125-125c-68.925,0-125,56.075-125,125c0,68.926,56.075,125.001,125,125.001
			C275.884,326.263,331.959,270.188,331.959,201.262z M206.959,316.263c-63.411,0-115-51.589-115-115.001
			c0-63.411,51.589-115,115-115s115,51.589,115,115C321.959,264.674,270.37,316.263,206.959,316.263z"/>
		<path d="M242.533,438.83c-4.738-1.905-8.781-2.747-9.582-2.975v-10.509c5.346,0.765,11.65,4.154,12.363,5.1l5.563-10.509
			c-2.164-1.236-4.713-2.446-7.649-3.632c-2.937-1.184-6.081-1.932-9.428-2.24v-7.805h-5.331v7.805
			c-11.621,1.212-17.618,8.504-17.618,17.694c0,5.741,2.282,9.762,8.191,12.634c4.125,2.007,8.524,3.034,10.277,3.594v10.276
			c-6.775-0.939-14.125-4.878-15.222-6.259l-5.564,11.05c5.809,3.873,13.173,6.058,19.936,6.645v9.041h5.332v-8.963
			c7.173-0.303,13.952-2.795,17.153-9.195c1.998-3.994,2.023-10.199,0.349-13.985C249.945,443.536,247.426,440.802,242.533,438.83z
			 M229.319,434.773c-1.804-0.566-3.156-1.224-4.057-1.97c-0.902-0.747-1.352-1.765-1.352-3.053c0-2.678,1.803-4.172,5.409-4.482
			V434.773z M232.951,458.419v-9.272c1.803,0.618,3.245,1.302,4.327,2.048c1.083,0.747,1.624,1.79,1.624,3.129
			C238.901,456.899,236.917,458.264,232.951,458.419z"/>
		<path d="M188.767,402.185c-3.71-1.493-6.749-2.112-7.402-2.298v-8.119c4.126,0.59,9,3.207,9.551,3.94l4.298-8.119
			c-1.672-0.955-3.642-1.89-5.91-2.806c-2.268-0.915-4.697-1.492-7.283-1.732v-6.029h-4.119v6.029
			c-5.556,0.579-10.24,2.984-12.536,8.148c-1.362,3.064-1.367,7.149-0.388,9.7c1.006,2.629,3.098,4.346,5.641,5.582
			c3.193,1.552,6.583,2.343,7.939,2.776v7.938c-5.339-0.739-10.925-3.787-11.76-4.835L162.5,420.9
			c4.488,2.992,10.177,4.68,15.401,5.133v6.985h4.119v-6.925c5.54-0.233,10.78-2.16,13.252-7.105
			c1.542-3.082,1.563-7.88,0.27-10.804C194.504,405.845,192.568,403.715,188.767,402.185z M178.558,399.051
			c-1.393-0.437-2.438-0.944-3.134-1.522c-0.696-0.577-1.044-1.363-1.044-2.358c0-2.068,1.393-3.223,4.179-3.462V399.051z
			 M181.364,417.318v-7.163c1.393,0.478,2.507,1.006,3.343,1.582c0.836,0.577,1.254,1.383,1.254,2.417
			C185.961,416.145,184.428,417.199,181.364,417.318z"/>
	</g>
</g>
<g id="Layer_1">
</g>
</svg>
